<svg width="21" height="20" viewBox="0 0 21 20" fill="none" xmlns="http://www.w3.org/2000/svg">
<path d="M2.16666 7.91662C2.16667 6.98929 2.44798 6.08377 2.97343 5.31967C3.49888 4.55557 4.24375 3.96883 5.10966 3.63695C5.97557 3.30507 6.92179 3.24366 7.82333 3.46082C8.72488 3.67799 9.53934 4.16352 10.1592 4.85329C10.2028 4.89996 10.2556 4.93718 10.3142 4.96262C10.3728 4.98806 10.4361 5.00119 10.5 5.00119C10.5639 5.00119 10.6271 4.98806 10.6858 4.96262C10.7444 4.93718 10.7972 4.89996 10.8408 4.85329C11.4587 4.15904 12.2733 3.66943 13.1764 3.44962C14.0794 3.22982 15.0279 3.29024 15.8957 3.62285C16.7635 3.95547 17.5095 4.5445 18.0343 5.31154C18.559 6.07858 18.8378 6.98725 18.8333 7.91662C18.8333 9.82495 17.5833 11.25 16.3333 12.5L11.7567 16.9275C11.6014 17.1058 11.4099 17.249 11.195 17.3477C10.9801 17.4464 10.7467 17.4982 10.5102 17.4997C10.2738 17.5012 10.0397 17.4523 9.82356 17.3564C9.60743 17.2605 9.41418 17.1196 9.25666 16.9433L4.66666 12.5C3.41666 11.25 2.16666 9.83329 2.16666 7.91662Z" stroke="#FFB4B4" stroke-width="1.66667" stroke-linecap="round" stroke-linejoin="round"/>
</svg>
