<svg width="33" height="32" viewBox="0 0 33 32" fill="none" xmlns="http://www.w3.org/2000/svg">
<path d="M16.53 6.66667C17.4234 6.66667 18.33 6.78667 19.1967 7.01333C21.57 4.34667 25.9034 3.22667 27.7567 4C29.6234 4.77333 27.1967 13.3333 27.1967 13.3333C27.9567 14.76 28.53 16.32 28.53 17.92C28.53 23.8667 23.1567 28 16.53 28C9.90336 28 4.53003 24 4.53003 17.92C4.53003 16.2533 5.19669 14.72 5.86336 13.3333C5.86336 13.3333 3.34336 4.77333 5.19669 4C7.05003 3.22667 11.49 4.30667 13.8634 6.97333C14.7381 6.77215 15.6325 6.66929 16.53 6.66667Z" stroke="#B8A398" stroke-width="2.66667" stroke-linecap="round" stroke-linejoin="round"/>
<path d="M11.1967 18.6667V19.3333" stroke="#B8A398" stroke-width="2.66667" stroke-linecap="round" stroke-linejoin="round"/>
<path d="M21.8634 18.6667V19.3333" stroke="#B8A398" stroke-width="2.66667" stroke-linecap="round" stroke-linejoin="round"/>
<path d="M15.53 21.6667H17.53L16.53 22.6667L15.53 21.6667Z" stroke="#B8A398" stroke-width="2.66667" stroke-linecap="round" stroke-linejoin="round"/>
</svg>
